<?xml version="1.0" encoding="UTF-8" standalone="no"?>
<!-- Created with Inkscape (http://www.inkscape.org/) -->

<svg
   xmlns:dc="http://purl.org/dc/elements/1.1/"
   xmlns:cc="http://creativecommons.org/ns#"
   xmlns:rdf="http://www.w3.org/1999/02/22-rdf-syntax-ns#"
   xmlns:svg="http://www.w3.org/2000/svg"
   xmlns="http://www.w3.org/2000/svg"
   xmlns:sodipodi="http://sodipodi.sourceforge.net/DTD/sodipodi-0.dtd"
   xmlns:inkscape="http://www.inkscape.org/namespaces/inkscape"
   width="61"
   height="45"
   id="svg4074"
   version="1.1"
   inkscape:version="0.48.5 r10040"
   sodipodi:docname="cedek_logo.svg">
  <defs
     id="defs4076" />
  <sodipodi:namedview
     id="base"
     pagecolor="#ffffff"
     bordercolor="#666666"
     borderopacity="1.0"
     inkscape:pageopacity="0.0"
     inkscape:pageshadow="2"
     inkscape:zoom="7.9195959"
     inkscape:cx="14.672691"
     inkscape:cy="17.986094"
     inkscape:document-units="px"
     inkscape:current-layer="layer1"
     showgrid="false"
     inkscape:window-width="1366"
     inkscape:window-height="709"
     inkscape:window-x="0"
     inkscape:window-y="0"
     inkscape:window-maximized="1" />
  <metadata
     id="metadata4079">
    <rdf:RDF>
      <cc:Work
         rdf:about="">
        <dc:format>image/svg+xml</dc:format>
        <dc:type
           rdf:resource="http://purl.org/dc/dcmitype/StillImage" />
        <dc:title></dc:title>
      </cc:Work>
    </rdf:RDF>
  </metadata>
  <g
     inkscape:label="Layer 1"
     inkscape:groupmode="layer"
     id="layer1"
     transform="translate(0,-1007.3622)">
    <path
       sodipodi:type="arc"
       id="path3234"
       style="fill:#ff0000;fill-opacity:1;stroke:none"
       sodipodi:cx="446.09909"
       sodipodi:cy="18.270269"
       sodipodi:rx="1.5"
       sodipodi:ry="1.5"
       d="m 447.59909,18.270269 a 1.5,1.5 0 1 1 -3,0 1.5,1.5 0 1 1 3,0 z"
       transform="matrix(0.06894767,0,0,0.06894802,-0.06098893,1006.7976)" />
    <path
       sodipodi:type="arc"
       id="path3236"
       style="fill:#ff0000;fill-opacity:1;stroke:none"
       sodipodi:cx="875.45044"
       sodipodi:cy="538.97296"
       sodipodi:rx="1.5"
       sodipodi:ry="1.5"
       d="m 876.95044,538.97296 a 1.5,1.5 0 1 1 -3,0 1.5,1.5 0 1 1 3,0 z"
       transform="matrix(0.06894767,0,0,0.06894802,-0.06098893,1006.7976)" />
    <path
       style="fill:none;stroke:#000000;stroke-width:0.68947846;stroke-linecap:butt;stroke-linejoin:miter;stroke-miterlimit:4;stroke-opacity:1;stroke-dasharray:none;display:inline"
       d="m 30.696505,1008.0573 29.602771,35.9015 -29.602771,7.8731 -29.70774897,-7.8731 z"
       id="path4029"
       inkscape:connector-curvature="0" />
    <path
       style="fill:none;stroke:#777777;stroke-width:0.68947846;stroke-linecap:butt;stroke-linejoin:miter;stroke-miterlimit:4;stroke-opacity:1;stroke-dasharray:none;display:inline"
       d="m 30.696505,1008.0573 29.602771,35.9015 -29.602771,7.8731 -29.70774897,-7.8731 z"
       id="path4033"
       inkscape:connector-curvature="0" />
    <path
       style="fill:none;stroke:#777777;stroke-width:0.68947846;stroke-linecap:butt;stroke-linejoin:miter;stroke-miterlimit:4;stroke-opacity:1;stroke-dasharray:none;display:inline"
       d="m 30.696505,1008.0573 0,43.7746"
       id="path4035"
       inkscape:connector-curvature="0" />
    <path
       style="fill:none;stroke:#777777;stroke-width:0.68947846;stroke-linecap:butt;stroke-linejoin:miter;stroke-miterlimit:4;stroke-opacity:1;stroke-dasharray:none;display:inline"
       d="m 5.5026551,1038.5001 25.1938499,7.3482 24.983892,-7.3482 -3.989021,-5.0388 -20.994871,6.4035 -20.8899009,-6.4035 4.3039479,-5.3537 16.585953,5.3537 16.585941,-5.3537 -4.094001,-4.829 -12.49194,3.6743 -12.491952,-3.6743 4.30395,-5.3537 8.188002,2.4144 8.292969,-2.4144 -4.408929,-5.1438 -3.88404,1.1548 -3.989031,-1.1548"
       id="path4037"
       inkscape:connector-curvature="0" />
  </g>
</svg>
