<?xml version="1.0" encoding="utf-8"?>
<!-- Generator: Adobe Illustrator 17.0.0, SVG Export Plug-In . SVG Version: 6.00 Build 0)  -->
<!DOCTYPE svg PUBLIC "-//W3C//DTD SVG 1.1//EN" "http://www.w3.org/Graphics/SVG/1.1/DTD/svg11.dtd">
<svg version="1.1" id="Capa_1" xmlns="http://www.w3.org/2000/svg" xmlns:xlink="http://www.w3.org/1999/xlink" x="0px" y="0px"
	 width="18.816px" height="28.987px" viewBox="0 0 18.816 28.987" enable-background="new 0 0 18.816 28.987" xml:space="preserve">
<path d="M13.724,14.234c-0.246,0.588-0.826,1.001-1.503,1.001c-0.899,0-1.627-0.729-1.627-1.628s0.729-1.628,1.627-1.628
	c0.29,0,0.561,0.076,0.797,0.208L9.094,0.826c0.486-0.023,0.953-0.056,1.409-0.035c0.233,0.007,0.485,0.019,0.689,0.148
	c0.207,0.125,0.325,0.359,0.337,0.592c0.004,0.059,0.004,0.117,0,0.176c-0.001,0.029-0.005,0.059-0.008,0.088l-0.006,0.097
	c-0.004,0.137,0.005,0.27,0.039,0.407c0.032,0.136,0.089,0.273,0.177,0.395c0.087,0.122,0.21,0.219,0.343,0.284
	c0.271,0.124,0.558,0.127,0.817,0.082c0.261-0.046,0.505-0.139,0.726-0.273l-0.012-0.029c-0.25,0.037-0.496,0.06-0.734,0.058
	c-0.236-0.005-0.468-0.037-0.649-0.135c-0.182-0.092-0.312-0.25-0.384-0.461c-0.037-0.104-0.056-0.221-0.072-0.333l-0.01-0.091
	c-0.004-0.033-0.008-0.066-0.014-0.099C11.731,1.63,11.717,1.565,11.697,1.5c-0.151-0.531-0.651-0.858-1.165-0.965
	c-0.262-0.047-0.524-0.027-0.777,0.019C9.52,0.598,9.29,0.667,9.077,0.775L9.032,0.646L7.393,5.791
	C7.646,5.584,7.97,5.46,8.323,5.46c0.813,0,1.473,0.659,1.473,1.472S9.137,8.405,8.323,8.405c-0.678,0-1.247-0.459-1.418-1.082
	l-2.839,8.909c0.298-0.354,0.745-0.579,1.244-0.579c0.899,0,1.628,0.729,1.628,1.628s-0.729,1.628-1.628,1.628
	c-0.854,0-1.553-0.657-1.622-1.493l-1.372,4.306l1.496-0.217l0.738-1.496l0.738,1.496l1.65,0.24l-1.194,1.164l0.282,1.644
	l-1.477-0.776l-1.475,0.776l0.281-1.644l-1.082-1.054L0,28.987h18.816C18.816,28.987,13.724,14.234,13.724,14.234z M11.423,18.137
	c0.426,0,0.772,0.346,0.772,0.771c0,0.427-0.346,0.772-0.772,0.772s-0.771-0.346-0.771-0.772
	C10.652,18.483,10.997,18.137,11.423,18.137z M9.894,9.309c0.268,0,0.485,0.217,0.485,0.485c0,0.269-0.217,0.486-0.485,0.486
	c-0.269,0-0.486-0.217-0.486-0.486C9.408,9.526,9.625,9.309,9.894,9.309z M8.323,10.125c0.512,0,0.927,0.415,0.927,0.927
	s-0.416,0.927-0.927,0.927s-0.927-0.416-0.927-0.927S7.812,10.125,8.323,10.125z M7.981,13.402l0.342-0.693l0.342,0.693l0.766,0.111
	l-0.554,0.541l0.131,0.763l-0.685-0.36l-0.685,0.36l0.13-0.763l-0.554-0.541C7.214,13.513,7.981,13.402,7.981,13.402z M7.981,17.495
	l0.342-0.694l0.342,0.694l0.766,0.112l-0.554,0.54l0.131,0.762l-0.685-0.36l-0.685,0.36l0.13-0.762l-0.554-0.54
	C7.214,17.607,7.981,17.495,7.981,17.495z M8.323,27.547c-0.97,0-1.755-0.786-1.755-1.756c0-0.969,0.786-1.755,1.755-1.755
	s1.755,0.787,1.755,1.755C10.079,26.761,9.292,27.547,8.323,27.547z M10.904,24.191l-0.684,0.36l0.129-0.763l-0.553-0.54
	l0.765-0.111l0.343-0.694l0.343,0.694l0.766,0.111l-0.554,0.54l0.13,0.763L10.904,24.191z M12.877,28.203
	c-0.537,0-0.971-0.436-0.971-0.972s0.435-0.971,0.971-0.971s0.971,0.435,0.971,0.971S13.414,28.203,12.877,28.203z M14.156,24.036
	c-0.97,0-1.756-0.786-1.756-1.756c0-0.969,0.786-1.755,1.756-1.755c0.969,0,1.756,0.786,1.756,1.755
	C15.912,23.25,15.125,24.036,14.156,24.036z M10.412,0.155c0.241,0.017,0.473,0.102,0.673,0.235c0.205,0.133,0.365,0.31,0.533,0.505
	c0.166,0.191,0.326,0.389,0.487,0.588c0.167,0.196,0.327,0.397,0.56,0.566c0.059,0.042,0.125,0.082,0.205,0.11
	c0.08,0.028,0.188,0.042,0.285,0.003c0.096-0.038,0.157-0.104,0.203-0.166c0.046-0.062,0.076-0.126,0.103-0.19
	c0.104-0.255,0.14-0.512,0.166-0.771l-0.03-0.007c-0.106,0.234-0.206,0.474-0.33,0.678c-0.062,0.097-0.143,0.189-0.2,0.195
	c-0.025,0.004-0.051,0-0.09-0.017c-0.038-0.019-0.081-0.049-0.123-0.084c-0.172-0.147-0.343-0.339-0.517-0.522l-0.535-0.554
	c-0.175-0.182-0.374-0.376-0.61-0.508C10.958,0.082,10.688,0.001,10.418,0c-0.271,0-0.532,0.072-0.767,0.186
	c-0.234,0.115-0.447,0.266-0.63,0.45l0.01,0.011l0.011,0.011C9.429,0.336,9.925,0.116,10.412,0.155z"/>
</svg>
